Coordinates
version=1
nRows=17
nColumns=36
inDegrees=yes

Units are S.I. units (second, meters, Newtons, ...)
If the header above contains a line with 'inDegrees', this indicates whether rotational values are in degrees (yes) or radians (no).

endheader
time	pelvis_tilt	pelvis_list	pelvis_rotation	pelvis_tx	pelvis_ty	pelvis_tz	hip_flexion_r	hip_adduction_r	hip_rotation_r	knee_angle_r	knee_angle_r_beta	ankle_angle_r	subtalar_angle_r	mtp_angle_r	hip_flexion_l	hip_adduction_l	hip_rotation_l	knee_angle_l	knee_angle_l_beta	ankle_angle_l	subtalar_angle_l	mtp_angle_l	lumbar_extension	lumbar_bending	lumbar_rotation	arm_flex_r	arm_add_r	arm_rot_r	elbow_flex_r	pro_sup_r	arm_flex_l	arm_add_l	arm_rot_l	elbow_flex_l	pro_sup_l
      2.48333330	    -25.07264989	      0.91191996	     -8.24574835	      0.70405485	      0.88460419	      0.01117345	     56.48425368	     -5.27801605	     -3.60941451	     48.85992952	      0.85276664	     20.11162869	     -8.91409364	     -7.49999987	     55.48102239	    -11.11716356	      4.94660402	     51.57565428	      0.90016498	     17.26206549	     -8.73694452	     -7.49999987	     -8.33283171	      3.17896723	     -0.03157551	    124.40261410	     -1.74487804	     21.78455679	     53.08174678	     98.53564441	    132.56668965	    -11.54820622	     30.52504994	     54.82084690	     94.68076335
      2.50000000	    -23.86330948	      0.20974823	     -8.00029685	      0.71279683	      0.91838137	      0.01553438	     49.85762542	     -4.73897605	     -5.23995848	     40.15935818	      0.70091303	     15.57947456	     -8.59722879	     -7.49999987	     49.48350149	    -11.21138485	      4.87395055	     43.57711580	      0.76056415	     12.41103153	     -9.54687346	     -7.49999987	     -7.31307821	      3.67047337	     -0.32836566	    131.67486687	     -3.63143964	     25.13925098	     49.38821634	    101.85361178	    138.63180902	    -11.80998227	     32.70133614	     51.96099310	     97.16391178
      2.51666670	    -21.66024089	     -0.75338020	     -7.76097126	      0.73486548	      0.96420154	      0.02199876	     40.26821944	     -3.44244093	     -6.64472169	     28.35409253	      0.49487227	      9.88101440	     -7.90323569	     -7.49999987	     40.93434044	    -11.68011088	      4.55805761	     33.39193989	      0.58279929	      6.34031637	     -9.52081098	     -7.49999987	     -5.83085418	      3.95529399	      1.14284323	    134.93158179	     -8.74207938	     30.66057940	     49.30035962	    100.64864194	    139.60802165	    -15.52478712	     37.06883840	     54.49935879	     96.08491599
      2.53333330	    -18.43615222	     -1.48901322	     -7.55919493	      0.76906939	      1.00806585	      0.02522352	     28.39279437	     -2.06811341	     -7.38246013	     14.50197052	      0.25310713	      3.15739656	     -5.65078780	     -7.49999987	     29.06303548	    -11.99012843	      3.49340863	     20.01353037	      0.34930200	     -0.99214779	     -8.11597970	     -7.49999987	     -4.02393440	      3.84864664	      0.02192176	    134.65860645	    -14.04681890	     34.91697451	     50.98459424	     98.00147582	    140.45254658	    -22.38300182	     45.89979805	     55.39214261	     91.79190054
      2.55000000	    -16.70169583	     -1.43263083	     -8.09539365	      0.78936272	      1.05214724	      0.02668093	     19.78158362	     -1.19925644	     -7.13124970	      2.66381924	      0.04649242	     -4.69236043	     -2.49159772	     -7.49999987	     19.90409006	    -12.14164653	      1.02819344	      8.29740853	      0.14481710	     -8.31802518	     -4.52810809	     -7.49999987	     -1.01432115	      2.90336135	     -1.68731660	    133.57355019	    -23.46898641	     43.56720232	     55.72807645	     94.97388001	    143.41004008	    -30.71585497	     59.18469586	     57.32796333	     85.30145716
      2.56666670	    -17.81611163	     -0.57638518	     -9.28940805	      0.79766415	      1.08977250	      0.03003263	     19.63399483	     -1.29901090	     -7.35486851	      0.19182334	      0.00334795	    -10.30803513	      0.29159990	     -7.49999987	     16.72611631	    -11.65637020	     -1.78520191	      1.11932102	      0.01953584	    -12.20165238	     -0.69853524	     -7.49999987	      3.35417275	      1.40517575	     -1.20524837	    135.46784954	    -36.78176929	     54.99621309	     61.12993106	     90.36891450	    148.92171034	    -37.09778206	     73.32472136	     57.95155371	     77.11569885
      2.58333330	    -19.74906287	      0.11231340	     -9.55000958	      0.80330466	      1.12716424	      0.03692102	     21.53208694	     -1.44010185	     -8.64184351	      0.09705858	      0.00169399	    -14.35557735	      1.28427431	     -7.49999987	     17.96912809	    -11.23171856	     -3.23599076	      0.18554582	      0.00323839	    -12.46114328	      1.81684948	     -7.49999987	      7.46026729	      0.39981023	     -0.28016005	    144.10935888	    -50.97509838	     72.47040400	     65.90706149	     86.97323272	    157.86014916	    -43.36538878	     91.41290848	     59.79747714	     69.28878999
      2.60000000	    -20.81584668	      0.39576039	     -9.34367957	      0.79975635	      1.16414251	      0.03579560	     22.30735809	     -1.35759046	     -9.54881469	      0.07702178	      0.00134428	    -16.98349429	      1.53634705	     -7.49999987	     19.13071940	    -10.71557151	     -4.09422669	      0.12036904	      0.00210084	    -12.23511104	      3.79161315	     -7.49999987	      9.21821782	     -0.09127020	      0.23914582	    162.61619215	    -62.90525815	     98.29351975	     69.78809194	     82.72352768	    170.54943650	    -49.06074836	    110.79371767	     62.58834115	     59.13680281
      2.61666670	    -21.00996295	      0.44432033	     -9.10948602	      0.79838299	      1.18484669	      0.03452006	     21.95407155	     -1.03615852	     -9.91708366	      0.07178708	      0.00125292	    -19.24355045	      1.57962795	     -7.49999987	     19.08553801	    -10.16040935	     -3.93486795	      0.10531493	      0.00183809	    -13.06502336	      4.69318258	     -7.49999987	      9.77828882	     -0.11284408	      1.65464874	    193.71389257	    -67.15229047	    136.25947857	     66.65005308	     81.43955251	    178.44671106	    -53.50161561	    120.40875574	     60.48501625	     61.87213728
      2.63333330	    -20.61651515	      0.07750397	     -8.50710408	      0.79923244	      1.21882637	      0.02856738	     20.66701167	     -0.49232930	     -9.94490587	      0.07636257	      0.00133278	    -22.42283069	      0.99260940	     -7.49999987	     18.59571230	     -9.76838538	     -3.84574301	      0.10495624	      0.00183183	    -14.46099325	      5.96333518	     -7.49999987	      9.56769808	      0.60006512	      0.80228494	    215.11534428	    -67.27249067	    164.06826414	     60.33055166	     81.84170409	    192.93955560	    -59.41730129	    135.58304549	     59.51127429	     63.66328795
      2.65000000	    -20.00843355	     -0.14844665	     -7.82505228	      0.80083536	      1.24696136	      0.02800549	     19.13177473	     -0.15997330	    -10.02411944	      0.08558914	      0.00149381	    -25.11756443	      0.67330089	     -7.49999987	     17.64078891	     -9.07499850	     -3.88986380	      0.11757355	      0.00205205	    -15.98314259	      6.12943590	     -7.49999987	      8.86747516	      1.17786829	     -0.32134284	    229.08709336	    -66.88302214	    184.90047773	     50.40001976	     81.77214818	    210.50680938	    -63.65989997	    152.61316880	     54.46428343	     70.56849138
      2.66666670	    -19.41033830	     -0.25262432	     -7.38074905	      0.79642863	      1.26771449	      0.03030045	     17.63302071	      0.16662193	     -9.75777367	      0.10301423	      0.00179794	    -27.22212475	      0.10567830	     -7.49999987	     16.83197061	     -8.59550218	     -3.73281056	      0.15064350	      0.00262923	    -17.03818709	      5.99541315	     -7.49999987	      7.68218038	      1.72985615	     -2.29677007	    237.21060348	    -68.41942390	    199.29804045	     38.82370801	     77.38961515	    233.99864301	    -64.09105265	    174.59815575	     47.49530795	     80.85614972
      2.68333330	    -18.70134227	     -0.31447450	     -6.85699220	      0.81108815	      1.28957507	      0.03267996	     15.91814436	      0.32593646	     -9.54360575	      0.12636666	      0.00220551	    -29.06897971	     -0.58512512	     -7.49999987	     15.69481924	     -8.15887425	     -3.45814429	      0.21549746	      0.00376114	    -17.51540079	      5.29937129	     -7.49999987	      7.05059808	      2.22012719	     -4.14670158	    251.35479907	    -70.53698185	    216.77918816	     29.69584004	     77.93484697	    255.40786013	    -60.57438660	    197.93666598	     40.40917578	     83.71301650
      2.70000000	    -18.45821277	     -0.21203020	     -6.42568525	      0.81319701	      1.31490655	      0.03315876	     15.15915720	      0.27419459	     -9.33632338	      0.14899888	      0.00260052	    -29.72160299	     -0.93339412	     -7.49999987	     15.45369709	     -7.77648621	     -3.28058562	      0.31126227	      0.00543255	    -17.32394348	      4.96125731	     -7.49999987	      6.83631490	      2.34503319	     -5.73367819	    271.03775109	    -70.34967101	    239.30281433	     23.15108111	     75.44260765	    270.38585960	    -54.17017030	    217.54358759	     34.62659963	     83.45677178
      2.71666670	    -18.99049795	     -0.01553569	     -6.15933499	      0.81997434	      1.34319207	      0.03690678	     15.61770872	      0.20719627	     -9.72429075	      0.14434914	      0.00251937	    -30.17778203	     -1.20466624	     -7.49999987	     16.40732347	     -7.61096244	     -3.59936267	      0.30991979	      0.00540912	    -17.02964811	      5.00424103	     -7.49999987	      7.16184569	      2.03818617	     -6.14060010	    292.42120010	    -63.90734601	    263.28623116	     22.01993735	     76.71684565	    283.45672645	    -47.01808363	    233.96708977	     34.23986237	     87.09491733
      2.73333330	    -19.58444473	      0.37184247	     -6.02489820	      0.82517788	      1.35153834	      0.04081595	     16.31634875	     -0.04267609	     -9.89158676	      0.13138193	      0.00229305	    -29.99004988	     -1.46727180	     -7.49999987	     17.27772396	     -7.34776577	     -4.27989395	      0.25306661	      0.00441685	    -16.66978984	      4.72459944	     -7.49999987	      8.47374269	      1.32882093	     -5.05569898	    301.45197968	    -55.06709064	    273.22146102	     19.59932195	     78.63746134	    291.28606715	    -42.61457343	    244.27379785	     33.15501999	     88.58888368
      2.75000000	    -20.16019848	      0.56849124	     -6.06853847	      0.82598401	      1.36158185	      0.04081377	     17.29082478	     -0.18049409	     -9.90137819	      0.12288330	      0.00214472	    -29.02464957	     -1.51201615	     -7.49999987	     18.37508322	     -7.42752232	     -4.97540326	      0.21477438	      0.00374852	    -16.51079772	      4.41492359	     -7.49999987	      9.27723365	      0.66751941	     -3.66882355	    306.98438133	    -45.37015323	    281.31425305	     18.98075138	     82.29456456	    298.33711334	    -35.81304613	    251.43327760	     36.23869889	     94.28340885
